# xmcd
#
# Track frame offsets:
#	150
#	11627
#	24070
#	42017
#	54690
#	61402
#	69187
#	88167
#	90335
#	97255
#	112000
#	118095
#	129420
#	139100
#	145155
#	160737
#	161505
#	170705
#	175590
#	183907
#	195320
#	205592
#	210072
#	224015
#	236437
#
# Disc length: 3317 seconds
#
# Revision: 8
# Processed by: cddbd v1.5.1PL2 Copyright (c) Steve Scherf et al.
# Submitted via: audiograbber 1.82.02
#
DISCID=4f0cf319
DTITLE=Felix Mendelssohn - Elias [CD2] - The Israel Philharmonic Orchestra, 
DTITLE=MDR-Chor Leipzig, Kurt Masur
DYEAR=1993
DGENRE=Classical
TTITLE0=Arie 'Höre, Israel, höre des Herrn Stimme'
TTITLE1='So spricht der Herr...Ich bin eur Troster'
TTITLE2=Chor 'Fürchte dich nicht, spricht unser Gott'
TTITLE3=Rezitativ mit Chor 'Der Herr hat Dich erhoben'
TTITLE4=Chor 'Wehe ihm, er muß sterben'
TTITLE5=Rezitativ 'Du Mann Gottes'
TTITLE6=Arie 'Es ist genug!'
TTITLE7=Rezitativ 'Siehe, er schläft'
TTITLE8=Terzett 'Hebe Deine Augen auf zu den Bergen'
TTITLE9=Chor 'Siehe, der Hüter Israels'
TTITLE10=Rezitativ 'Stehe auf, Elias'
TTITLE11=Arie 'Sei stille dem Herrn'
TTITLE12=Chor 'Wer bis an das Ende beharrt'
TTITLE13=Rezitativ 'Herr, es wird Nacht um mich'
TTITLE14=Chor 'Der Herr ging vorüber'
TTITLE15=Rezitativ 'Seraphim standen über ihm'
TTITLE16=Quartett mit Chor 'Heilig ist Gott der Herr'
TTITLE17=Chor Rezitativ 'Gehe wiederum hinab!'
TTITLE18=Arioso 'Ja, es sollen wohl Berge weichen'
TTITLE19=Chor 'Und der Prophet Elias brach hervor'
TTITLE20=Arie 'Dann werden die Gerechten leuchten'
TTITLE21=Rezitativ 'Darum ward gesendet der Prophet Elias'
TTITLE22=Chor 'Aber einer erwacht von Mitternacht'
TTITLE23=Quartett 'Wohlan, alle, die ihr durstig seid'
TTITLE24=Chor 'Alsdann wird euer Licht hervorbrechen'
EXTD=
EXTT0=
EXTT1=
EXTT2=
EXTT3=
EXTT4=
EXTT5=
EXTT6=
EXTT7=
EXTT8=
EXTT9=
EXTT10=
EXTT11=
EXTT12=
EXTT13=
EXTT14=
EXTT15=
EXTT16=
EXTT17=
EXTT18=
EXTT19=
EXTT20=
EXTT21=
EXTT22=
EXTT23=
EXTT24=
PLAYORDER=
